<svg aria-hidden="true" style="position: absolute; width: 0; height: 0; overflow: hidden;" version="1.1" xmlns="http://www.w3.org/2000/svg" xmlns:xlink="http://www.w3.org/1999/xlink">
<defs>
<symbol id="icon-close" viewBox="0 0 32 32">
<path d="M30.049 0.335c0.446-0.446 1.17-0.446 1.616 0s0.446 1.17 0 1.616l-14.049 14.049 14.049 14.049c0.446 0.446 0.446 1.17 0 1.616s-1.17 0.446-1.616 0l-14.049-14.049-14.049 14.049c-0.446 0.446-1.17 0.446-1.616 0s-0.446-1.17 0-1.616l14.049-14.049-14.049-14.049c-0.446-0.446-0.446-1.17 0-1.616s1.17-0.446 1.616 0l14.049 14.049 14.049-14.049z"></path>
</symbol>
<symbol id="icon-auth" viewBox="0 0 32 32">
<path fill="var(--color-font)" d="M14.102 14.543c0.095-0.692 0.414-1.333 0.906-1.827l10.554-10.581 2.182 2.188-10.554 10.581c-0.492 0.494-1.132 0.813-1.822 0.908l-1.469 0.204 0.203-1.473zM13.502 11.206c-0.821 0.823-1.351 1.892-1.51 3.044l-0.589 4.268 4.258-0.59c1.15-0.159 2.216-0.691 3.037-1.514l10.554-10.581c0.832-0.834 0.832-2.187 0-3.021l-2.182-2.188c-0.832-0.834-2.181-0.834-3.013 0l-10.554 10.581zM3.205 5.769c-1.767 0-3.2 1.433-3.2 3.2v17.706c0 1.767 1.433 3.2 3.2 3.2h17.649c1.767 0 3.2-1.433 3.2-3.2v-9.182h-2.133v9.182c0 0.589-0.478 1.067-1.067 1.067h-17.649c-0.589 0-1.067-0.478-1.067-1.067v-17.706c0-0.589 0.478-1.067 1.067-1.067h9.153v-2.133h-9.153z"></path>
</symbol>
<symbol id="icon-settings" viewBox="0 0 32 32">
<path fill="var(--color-setting-bg)"  d="M5.12 0h21.76c2.828 0 5.12 2.292 5.12 5.12v21.76c0 2.828-2.292 5.12-5.12 5.12h-21.76c-2.828 0-5.12-2.292-5.12-5.12v-21.76c0-2.828 2.292-5.12 5.12-5.12z"></path>
<path fill="var(--color-setting)" d="M16 18.4c1.323 0 2.4-1.077 2.4-2.4s-1.077-2.4-2.4-2.4-2.4 1.077-2.4 2.4c0 1.323 1.077 2.4 2.4 2.4zM16 17.6c-0.882 0-1.6-0.718-1.6-1.6s0.718-1.6 1.6-1.6 1.6 0.718 1.6 1.6c0 0.882-0.718 1.6-1.6 1.6z"></path>
<path fill="var(--color-setting)"  d="M15.244 8.8c-0.624 0-1.132 0.494-1.155 1.112l-0.233 1.165-0.788-0.71c-0.452-0.443-1.178-0.441-1.626 0.008l-1.069 1.069c-0.449 0.449-0.451 1.174-0.008 1.626l0.71 0.788-1.165 0.233c-0.618 0.023-1.112 0.531-1.112 1.155v1.511c0 0.624 0.494 1.132 1.112 1.155l1.165 0.233-0.71 0.787c-0.443 0.452-0.441 1.178 0.008 1.626l1.069 1.069c0.449 0.449 1.174 0.451 1.626 0.008l0.788-0.71 0.233 1.165c0.023 0.618 0.531 1.112 1.155 1.112h1.511c0.624 0 1.132-0.494 1.155-1.112l0.233-1.165 0.788 0.71c0.452 0.443 1.177 0.441 1.626-0.008l1.069-1.069c0.449-0.449 0.451-1.174 0.008-1.626l-0.71-0.787 1.165-0.233c0.618-0.023 1.112-0.531 1.112-1.155v-1.511c0-0.624-0.494-1.132-1.112-1.155l-1.165-0.233 0.71-0.788c0.443-0.452 0.441-1.177-0.008-1.626l-1.069-1.069c-0.449-0.449-1.174-0.451-1.626-0.008l-0.788 0.71-0.233-1.165c-0.023-0.618-0.531-1.112-1.155-1.112h-1.511zM14.889 9.956c0-0.196 0.159-0.356 0.356-0.356h1.511c0.196 0 0.356 0.159 0.356 0.356v0.040l0.248 1.238c0.122 0.608 0.859 0.853 1.32 0.437l0.809-0.73c0.139-0.139 0.364-0.139 0.503 0l1.069 1.068c0.139 0.139 0.139 0.364 0 0.503l-0.007 0.007-0.723 0.802c-0.415 0.461-0.171 1.198 0.437 1.32l1.238 0.248h0.040c0.196 0 0.356 0.159 0.356 0.356v1.511c0 0.196-0.159 0.356-0.356 0.356h-0.040l-1.238 0.248c-0.608 0.122-0.853 0.859-0.437 1.32l0.723 0.802 0.007 0.007c0.139 0.139 0.139 0.364 0 0.503l-1.069 1.069c-0.139 0.139-0.364 0.139-0.503 0l-0.007-0.007-0.802-0.723c-0.461-0.415-1.198-0.171-1.32 0.437l-0.248 1.238v0.040c0 0.196-0.159 0.356-0.356 0.356h-1.511c-0.196 0-0.356-0.159-0.356-0.356v-0.040l-0.248-1.238c-0.122-0.608-0.859-0.853-1.32-0.437l-0.81 0.73c-0.139 0.139-0.364 0.139-0.503 0l-1.069-1.069c-0.139-0.139-0.139-0.364 0-0.503l0.007-0.007 0.723-0.802c0.415-0.461 0.171-1.198-0.437-1.32l-1.238-0.248h-0.040c-0.196 0-0.356-0.159-0.356-0.356v-1.511c0-0.196 0.159-0.356 0.356-0.356h0.040l1.238-0.248c0.608-0.122 0.853-0.859 0.437-1.32l-0.731-0.81c-0.139-0.139-0.139-0.364 0-0.503l1.069-1.068c0.139-0.139 0.364-0.139 0.503 0l0.007 0.007 0.802 0.723c0.461 0.415 1.198 0.171 1.32-0.437l0.248-1.238v-0.040z"></path>
</symbol>
<symbol id="icon-path" viewBox="0 0 37 32">
<path fill="var(--color-font)" d="M32.229 17.333l-11.057 11.057c-0.521 0.521-0.521 1.365 0 1.886s1.365 0.521 1.886 0l14.276-14.276-14.276-14.276c-0.521-0.521-1.365-0.521-1.886 0s-0.521 1.365 0 1.886l11.057 11.057h-30.895c-0.736 0-1.333 0.597-1.333 1.333s0.597 1.333 1.333 1.333h30.895z"></path>
</symbol>
</defs>
</svg>
